<svg xmlns="http://www.w3.org/2000/svg" width="762.169" height="222.679" id="cartier"><path d="M382.957 147.477c-.237-.069-.07-.069 0 0ZM524.55 91.631c3.945 2.914 9.716 1.84 12.965-2.384 3.29-4.335 2.816-10.177-1.059-13.229-3.82-2.844-9.591-1.743-12.979 2.649-3.137 4.141-2.677 9.995 1.073 12.964Z"></path><path d="M134.19 183.206c-25.9 25.595-64.056 30.962-64.056 30.962-41.459 6.259-45.515-32.816-45.515-32.816-7-65.367 42.1-124.92 42.1-124.92C115.538-10.134 181.574 6.943 181.574 6.943c22.639 7.263 16.659 42.086 16.659 42.086l28.591-40.761S205.593 18.361 197.7 10.9c0 0-55.985-40.8-139.99 35.464 0 0-68.991 63.415-56.11 136.825 0 0 8.253 49.251 69.34 35.994 0 0 37.179-5.869 62.188-28.313-5.437 26.877 19.851 29.108 19.851 29.108 24.228 4.893 58.759-23.294 58.759-23.294-5.228 24.73 21.705 24.089 21.705 24.089 26.821 2.718 61.394-38.629 61.394-38.629l-20.911 37.318h22.235l42.351-77.537a79.714 79.714 0 0 1 38.629-21.44s8.545-1.506 9.535 6.622a8.35 8.35 0 0 0-4.5-1.059c-5.3-.1-9.661 4.7-9.786 10.581a11.2 11.2 0 0 0 10.581 10.86c.153-.084.112-.084 0 0 .864.167 13.188 3.039 41.556-26.724l-41.821 66.426s-14.916 20.7 0 29.637c0 0 16.561 9.452 37.583-.53 0 0 19.071-7.5 55.831-48.694l-14.02 23.813s-11.947 19.461 6.873 28.313c0 0 29.066 14.122 64.586-32.021 0 0-8.295 31.324 21.705 34.67 0 0 53.894 8.615 117.5-66.426l-38.378 64.572h23.824l31.49-54.257c22.221-30.056 49.224-42.6 49.224-42.6 15.5-6.064 19.057 3.708 19.057 3.708h-.265a7.416 7.416 0 0 0-4.5-1.324c-4.963-.042-9.033 4.322-9.005 9.786-.042 5.3 4.029 9.842 9.005 9.786 8.113-.4 9.145-12.045 8.741-12.965 0 0 2.342-10.009-8.476-14.024 0 0-15.585-6.538-48.429 25.135 0 0-2.342 1.826-2.119-.53l14.289-24.6h-21.958l-14.038 22.751c-75.069 81.426-111.412 71.723-111.412 71.723-23.866-2.7-9.786-33.081-9.786-33.081 74.484-3.388 77.8-47.9 77.8-47.9 2.886-26.473-28.843-19.586-28.843-19.586-42.365 8.615-71.974 63.527-71.974 63.527-28.271 41.236-48.973 39.173-48.973 39.173-15.962-.683-7.681-17.732-7.681-17.732l43.94-79.92h-18.525L488.3 146.961c-17.314 24.061-58.759 58.494-58.759 58.494a35.923 35.923 0 0 1-27.532 7.4c-13.132-2.607-2.635-19.057-2.635-19.057l48.694-77.815h24.089l1.575-3.443h-23.54l26.459-42.6H456.8l-24.09 37.848c-28.034 31.2-45.251 35.45-45.251 35.45 1.143-.822 3.987-4.224 4.238-10.846 1.52-14.554-10.846-15.348-10.846-15.348-11.7-2.2-32.021 10.316-32.021 10.316s-2.44.864-1.324-1.854l4.5-8.211h-18.788l-30.976 48.443c-46.115 55.009-68.266 50.269-68.266 50.269-11.612-3.541.795-23.545.795-23.545l41.292-75.7-19.851-.795-7.681 13.759s-1.91.864-1.589-3.178c0 0 1.283-14.707-18.792-16.143 0 0-43.341-7.528-86.542 60.069-2.217 3.4-7.416 12.728-7.416 12.728Z"></path><path fill="#fff" d="M565.842 169.433c26.961-56.905 51.342-54.521 51.342-54.521 12.491 2.453 6.622 20.116 6.622 20.116-13.759 37.123-56.1 39.173-56.1 39.173-4.499-.669-1.864-4.768-1.864-4.768Zm-404.119 42.616c-13.1-2.677-5.562-25.149-5.562-25.149 12.8-31.3 44.205-56.11 44.205-56.11 25.107-22.388 38.908-11.64 38.908-11.64 11.7 9.926-2.119 32.551-2.119 32.551l-17.201 29.108c-34.112 37.876-58.229 31.24-58.229 31.24Z"></path></svg>